<svg xmlns="http://www.w3.org/2000/svg" viewBox="-7 -7 440 215">
    <style>
        path{fill:black;}#flood{flood-color:#000;}@media(prefers-color-scheme:dark){path{fill:white;}#flood{flood-color:#fff;}}</style>
    <defs>
        <filter id="s" filterUnits="userSpaceOnUse">
            <feOffset dx="2" dy="2" />
            <feGaussianBlur result="x" stdDeviation="5" />
            <feFlood id="flood" flood-opacity=".5" />
            <feComposite in2="x" operator="in" />
            <feComposite in="SourceGraphic" />
        </filter>
    </defs>
    <g filter="url(#s)">
        <path
            d="m24.1,156.4c-4.8-5.3-7.2-12.9-7.2-22.8v-7h18.2v8.4c0,7.9,3.3,11.9,10,11.9s5.7-1,7.4-2.9c1.7-1.9,2.5-5,2.5-9.4s-1.2-9.7-3.5-13.6c-2.3-3.9-6.6-8.6-13-14.1-7.9-7-13.5-13.3-16.6-19-3.1-5.7-4.7-12-4.7-19.2s2.4-17.2,7.3-22.5c4.9-5.3,12-8,21.4-8s16.2,2.7,20.9,8c4.7,5.3,7.1,12.9,7.1,22.8v5.1h-18.2v-6.3c0-4.2-.8-7.3-2.5-9.2-1.6-1.9-4-2.9-7.2-2.9-6.4,0-9.6,3.9-9.6,11.7s1.2,8.6,3.6,12.4c2.4,3.9,6.7,8.5,13,14,8,7,13.6,13.4,16.6,19.1,3,5.7,4.5,12.4,4.5,20.1s-2.5,17.7-7.4,23.1c-5,5.4-12.2,8-21.6,8s-16.4-2.7-21.2-8Z" />
        <path
            d="m98.5,40.1h19.2v49.9h20.7v-49.9h19.2v122.5h-19.2v-55.1h-20.7v55.1h-19.2V40.1Z" />
        <path
            d="m200,40.1h26.1l20,122.5h-19.2l-3.5-24.3v.4h-21.9l-3.5,24h-17.9l19.9-122.5Zm21,81.9l-8.6-60.6h-.4l-8.4,60.6h17.3Z" />
        <path
            d="m268.4,40.1h29.4c9.6,0,16.7,2.6,21.5,7.7,4.8,5.1,7.2,12.7,7.2,22.6v62c0,9.9-2.4,17.4-7.2,22.6-4.8,5.1-12,7.7-21.5,7.7h-29.4V40.1Zm29,105c3.2,0,5.6-.9,7.3-2.8,1.7-1.9,2.5-4.9,2.5-9.1v-63.7c0-4.2-.8-7.2-2.5-9.1-1.7-1.9-4.1-2.8-7.3-2.8h-9.8v87.5h9.8Z" />
        <path
            d="m352.6,40.1h52.5v17.5h-33.2v32.4h26.4v17.5h-26.4v37.6h33.2v17.5h-52.5V40.1Z" />
    </g>
</svg>